 <svg
            xmlns="http://www.w3.org/2000/svg"
            width="200"
            height="56"
            viewBox="0 0 200 56"
        >
            <g fill="none" fillRule="evenodd">
                <g>
                    <g>
                        <g>
                            <path
                                d="M0 0H200V56H0z"
                                transform="translate(-63 -170) translate(63 170)"
                            />
                            <path
                                fill="#FF671D"
                                d="M55.19.025c.067-.041.153-.03.208.026.063.066.06.17-.006.233-2.42 2.378-8.158 7.92-11.362 10.396-.443.344-3.454 9.081-5.812 14.308-2 4.434-5.127 7.03-13.245 11.462-5.613 3.059-9.328 14.58-14.6 18.907-.053.04-.123.05-.184.025-.094-.04-.14-.147-.1-.241L21.79 28.834c-1.224-.113-4.47-3.013-8.107-6.647-.02-.021-.028-.052-.02-.08.013-.044.06-.069.103-.056l16.33 5.355c.006.001.013 0 .018-.003.012-.007.017-.022.01-.034l-1.113-1.88c-.087-.146-.223-.255-.383-.308l-17.552-5.755c-.1-.033-.189-.09-.261-.164-.59-.612-1.174-1.225-1.753-1.838-.012-.012-.015-.03-.01-.046.008-.024.034-.036.058-.028l18.645 6.116c.008.003.016.002.023-.002.012-.007.016-.023.009-.035l-1.137-1.94c-.063-.107-.165-.186-.283-.222L6.904 14.884c-.201-.066-.382-.182-.526-.338-.525-.568-1.033-1.122-1.519-1.656-.017-.016-.021-.04-.012-.06.012-.028.044-.04.071-.028L25.4 19.526c.007.003.016.002.022-.002.012-.007.016-.023.009-.035l-1.136-1.934c-.064-.11-.165-.192-.284-.233L3.015 10.436l-.363-.125c-.127-.043-.24-.119-.33-.219C1.138 8.777.399 7.942.03 7.522c-.028-.033-.037-.078-.024-.119.022-.064.09-.099.154-.077C3.762 8.513 29.11 16.88 31.097 17.515c0 0-3.272-9.8 11.61-9.8.47 0 9.106-5.52 12.484-7.69zm98.682 17.683c5.675 0 8.822 3.616 8.822 8.32 0 6.845-4.545 11.646-11.078 11.646-5.681 0-8.823-3.616-8.823-8.32 0-6.874 4.545-11.646 11.079-11.646zm45.772.395c.157-.005.287.12.292.276 0 .025-.002.05-.008.073l-.505 2.8c-.02.142-.142.246-.284.245h-9.116c-.141.005-.26.108-.284.247l-.684 3.88c-.036.153.058.306.21.343.027.006.055.008.082.007h8.28c.157-.004.288.12.292.276 0 .025-.002.05-.008.073l-.496 2.795c-.02.141-.142.246-.285.245h-8.499c-.14.004-.26.108-.284.247l-.676 3.914c-.034.153.062.305.215.34.023.005.046.007.07.007h9.171c.157-.005.288.12.292.276 0 .024-.002.05-.007.073l-.506 2.84c-.02.142-.142.246-.284.245h-13.618c-.157.004-.287-.12-.291-.277-.001-.024.001-.049.007-.073l3.29-18.608c.02-.141.141-.246.284-.244zm-30.115-.006c.147 0 .27.112.284.259l1.926 14.597c-.025.157.081.304.238.33.157.025.305-.082.33-.239l7.22-14.77c.05-.103.154-.168.267-.169h3.997c.156-.012.293.104.306.261.005.062-.01.125-.044.177l-9.866 18.6c-.049.098-.151.159-.261.156h-5.278c-.147.006-.274-.101-.292-.247l-3.236-18.608c-.034-.153.062-.305.215-.34.022-.005.046-.007.069-.007zm-42.345-.017c.158 0 .285.127.285.284l.9 13.027c.017.164.163.283.327.267.105-.011.197-.077.241-.173l5.34-13.203c.044-.118.16-.193.285-.185h6.709c.157-.004.287.12.291.277.001.024-.002.048-.007.073l-3.292 18.608c-.02.141-.142.246-.285.244h-3.763c-.157.005-.287-.12-.292-.276 0-.025.002-.05.008-.073l2.148-11.93c.046-.157-.043-.323-.2-.37-.156-.047-.322.042-.369.199l-5.27 12.263c-.044.115-.16.187-.283.179h-4.644c-.157 0-.285-.127-.285-.284l-.94-12.263c.008-.162-.117-.3-.28-.308-.162-.008-.3.117-.308.28l-2.139 12.32c-.018.141-.14.247-.284.246h-3.755c-.164-.005-.294-.143-.288-.308l.004-.041 3.292-18.609c.02-.14.142-.246.284-.244h6.57zm-50.982.017c.144-.001.265.105.284.247l3.233 18.603c.005.023.007.046.007.07-.004.156-.135.28-.291.277h-4.119c-.144-.006-.264-.114-.284-.256l-.705-4.917c-.021-.142-.14-.248-.284-.253H69.8c-.066 0-.131-.015-.19-.044-.206-.104-.289-.355-.185-.56l1.286-2.589c.072-.141.217-.23.375-.23h2.344l.032-.003c.163-.024.275-.175.252-.338l-.736-5.113c.025-.157-.082-.304-.238-.33-.157-.024-.305.082-.33.24l-1.94 3.848-.222.449-.409.815v.015l-4.246 8.538-.284.568c-.048.103-.152.168-.264.165h-3.997c-.049 0-.097-.012-.14-.034-.146-.077-.201-.258-.124-.403l9.87-18.609c.05-.1.154-.16.265-.156zm35.598 0c.141.005.26.108.284.247l3.218 18.609c.006.022.008.046.007.07-.004.156-.134.28-.29.276h-4.122c-.147.001-.27-.11-.284-.255l-.708-4.918c-.016-.144-.138-.253-.284-.252h-4.26c-.067 0-.133-.017-.192-.048-.205-.106-.284-.359-.178-.563l1.287-2.588c.07-.14.214-.23.372-.23h2.344l.032-.003c.162-.024.276-.175.252-.338l-.736-5.113c.025-.157-.081-.304-.239-.33-.157-.024-.304.082-.33.24l-1.581 3.164-.395.792-.568 1.162v.02l-3.898 7.84-.624 1.255c-.048.104-.153.169-.267.165h-3.997c-.062.005-.125-.01-.177-.045-.132-.085-.17-.26-.085-.392l9.869-18.609c.052-.096.154-.156.264-.156zm-23.048 0c.157-.004.287.12.291.276 0 .025-.001.05-.007.074l-2.63 14.83c-.037.153.058.306.21.342.024.006.049.008.073.007h9.059c.157-.012.294.104.306.26.005.063-.01.125-.044.178l-1.634 3.08c-.047.092-.14.152-.244.155H81.724c-.157.004-.287-.12-.291-.276 0-.025.002-.05.007-.073l3.29-18.609c.02-.14.141-.245.284-.244zm-35.612 0c.156-.004.287.12.291.276.001.025-.002.05-.007.074l-2.602 14.83c-.036.153.058.306.211.342.024.006.048.008.073.007h9.059c.156-.012.293.104.305.26.005.063-.01.125-.044.178l-1.634 3.08c-.049.096-.149.157-.258.155H46.13c-.157.004-.287-.12-.292-.276 0-.025.003-.05.008-.073l3.273-18.609c.02-.14.141-.245.284-.244h3.738zm100.479 2.838c-4.23 0-6.204 4.545-6.204 8.323 0 3.059 1.557 5.204 4.451 5.204 4.204 0 6.207-4.537 6.207-8.323 0-3.088-1.56-5.204-4.454-5.204z"
                                transform="translate(-63 -170) translate(63 170)"
                            />
                        </g>
                    </g>
                </g>
            </g>
        </svg>