<svg version="1.2" xmlns="http://www.w3.org/2000/svg" viewBox="0 0 845 596" width="845" height="596">
	<title>undraw_questions_re_1fy7-svg</title>
	<style>
		.s0 { fill: #ff6101 } 
		.s1 { fill: #f2f2f2 } 
		.s2 { fill: #2f2e41 } 
		.s3 { fill: #a0616a } 
		.s4 { fill: #e6e6e6 } 
		.s5 { fill: #3f3d56 } 
		.s6 { fill: #ffb8b8 } 
		.s7 { fill: #cccccc } 
	</style>
	<path id="Layer" class="s0" d="m431.4 594c-25.4 0-46-20.6-46-46 0-25.4 20.6-46 46-46 25.4 0 46 20.6 46 46 0 25.4-20.6 46-46 46z"/>
	<path id="Layer" class="s1" d="m706.2 591.4c25.7-7.7 53.1-15.8 73.5-34.1 18.2-16.5 30.6-41.5 23-66.2-7.5-24.5-30.1-40.9-53.4-49.1-13.3-4.6-27.1-7.1-40.9-9.2-15.1-2.2-30.2-3.9-45.3-5.7q-91.6-10.5-184-12.8c-30.4-0.7-60.8-0.7-91.2-0.3-27.1 0.4-55.7 0.4-80.9-11.1-19.5-9-37.3-25.3-42.8-46.8-6.3-24.7 5.4-49.9 22-67.9 8.8-9.4 19.1-17.4 29.7-24.7 11.4-7.9 23.3-15.3 35.5-22.2q8.9-5 18.1-9.7 9.2-4.7 18.5-9.1 9.4-4.3 18.9-8.2 9.6-3.9 19.2-7.4c12.8-4.7 25.7-8.7 38.8-12.4 11-3.1 22-6.2 32.7-10.4 20.6-8.2 40.1-22.1 45.4-44.9 4.9-21.6-3.4-45.1-18.1-61.1-17-18.5-42.5-26.7-67-28-27.6-1.5-54.5 5.4-80.3 14.2-27.6 9.3-54.6 20-82.8 27.6q-10.5 2.8-21.1 5.2-10.6 2.4-21.2 4.3-10.7 2-21.4 3.6-10.7 1.6-21.5 2.7c-14.1 1.5-28.6 3.2-42.8 2-11.8-0.9-23.7-4.4-32.4-12.8-7.5-7.3-12-17.2-10.4-27.7 0.2-1.9 3.1-1.1 2.8 0.8-1.8 12.8 6.8 24.5 17.5 30.6 12.4 6.9 27.4 6.9 41.2 6.1q11.1-0.6 22.3-1.8 11.1-1.1 22.2-2.7 11.1-1.6 22.1-3.7 11-2 21.9-4.6c28.6-6.5 56.1-15.8 83.7-25.8 26.1-9.5 52.9-18.7 80.8-20.8 24.3-1.8 49.8 1.8 70.9 14.4 18.6 11.2 32.2 29.8 36.6 51.1 4.2 20.8-1.7 41.8-17.4 56.3-16.4 15-38.7 21.5-59.6 27.4-26.5 7.5-52.3 16.3-77.4 27.7q-9.5 4.3-18.8 9-9.4 4.8-18.5 9.9-9.1 5.1-18 10.6-8.9 5.5-17.5 11.4c-22.2 15.2-44.2 34.4-51.2 61.5-3.3 12.6-2.7 26 2.8 37.9 4.9 10.6 12.9 19.6 22.2 26.5 22.4 16.4 50.5 19.8 77.5 20.1 30.2 0.4 60.5-0.7 90.8-0.2q92.6 1.6 184.8 11.3 23.1 2.5 46.2 5.4c13.8 1.8 27.7 3.6 41.3 6.7 24.1 5.6 47.6 16.4 62.7 36.9q2.4 3.3 4.5 6.9 2 3.6 3.5 7.5 1.5 3.9 2.5 7.9 1 4 1.4 8.1c1.1 11.6-1.8 23.1-7 33.4-11.5 22.6-33.1 37.1-56.1 46.6-12.2 5-25 8.9-37.7 12.7-1.9 0.6-2.6-2.3-0.8-2.9z"/>
	<path id="Layer" class="s1" d="m125.9 93.5c-13.3 0-24-10.7-24-24 0-13.3 10.7-24 24-24 13.3 0 24 10.7 24 24 0 13.3-10.7 24-24 24z"/>
	<path id="Layer" class="s1" d="m292.4 139c-13.3 0-24-10.7-24-24 0-13.3 10.7-24 24-24 13.3 0 24 10.7 24 24 0 13.3-10.7 24-24 24z"/>
	<path id="Layer" class="s1" d="m433.4 48c-13.3 0-24-10.7-24-24 0-13.3 10.7-24 24-24 13.3 0 24 10.7 24 24 0 13.3-10.7 24-24 24z"/>
	<path id="Layer" class="s1" d="m521.4 150c-13.3 0-24-10.7-24-24 0-13.3 10.7-24 24-24 13.3 0 24 10.7 24 24 0 13.3-10.7 24-24 24z"/>
	<path id="Layer" class="s1" d="m402.4 268c-13.3 0-24-10.7-24-24 0-13.3 10.7-24 24-24 13.3 0 24 10.7 24 24 0 13.3-10.7 24-24 24z"/>
	<path id="Layer" class="s1" d="m251.4 325c-13.3 0-24-10.7-24-24 0-13.3 10.7-24 24-24 13.3 0 24 10.7 24 24 0 13.3-10.7 24-24 24z"/>
	<path id="Layer" class="s1" d="m411.4 414c-13.3 0-24-10.7-24-24 0-13.3 10.7-24 24-24 13.3 0 24 10.7 24 24 0 13.3-10.7 24-24 24z"/>
	<path id="Layer" class="s1" d="m583.4 464c-13.3 0-24-10.7-24-24 0-13.3 10.7-24 24-24 13.3 0 24 10.7 24 24 0 13.3-10.7 24-24 24z"/>
	<path id="Layer" class="s1" d="m784.4 453c-13.3 0-24-10.7-24-24 0-13.3 10.7-24 24-24 13.3 0 24 10.7 24 24 0 13.3-10.7 24-24 24z"/>
	<path id="Layer" class="s0" d="m426.5 68c-71.9 0.5-130.8 58.9-131.8 130.8 0 0.7 0 5.4 0 11.5 0 4.4 0.8 8.8 2.5 12.9 1.7 4.1 4.2 7.8 7.4 10.9 3.1 3.1 6.8 5.6 10.9 7.3 4.1 1.7 8.5 2.6 12.9 2.6 4.5 0 8.8-0.9 12.9-2.6 4.1-1.7 7.9-4.2 11-7.3 3.1-3.1 5.6-6.9 7.3-11 1.7-4.1 2.6-8.5 2.6-12.9 0-4.1 0-7 0-7.2 0-22.6 11.9-43.5 31.3-55.1 19.5-11.5 43.6-11.9 63.4-1.1 19.8 10.9 32.5 31.4 33.2 54 0.8 22.6-10.4 43.9-29.4 56.1 0 0-48 30.9-62.7 73.3q-0.9 3.3-1.6 6.6-0.8 3.3-1.3 6.7-0.4 3.3-0.7 6.7-0.2 3.4-0.2 6.8c0 3.7 0.2 36.3 0.6 62.8 0.1 4.5 1 9 2.8 13.1 1.8 4.2 4.4 7.9 7.6 11.1 3.2 3.2 7 5.7 11.2 7.4 4.2 1.7 8.7 2.6 13.2 2.6 4.6 0 9.1-0.9 13.4-2.7 4.2-1.7 8.1-4.3 11.3-7.6 3.2-3.2 5.8-7.1 7.5-11.3 1.8-4.3 2.6-8.8 2.6-13.4-0.1-24.2-0.2-52.5-0.2-54.5 0-26 25.1-52 45.7-68.9 23.8-19.5 40.9-46.1 47.8-76q0.5-2.3 1-4.7 0.4-2.3 0.7-4.7 0.4-2.3 0.5-4.7 0.2-2.4 0.3-4.8c0-17.5-3.5-34.8-10.2-51-6.8-16.1-16.6-30.8-29-43.2-12.5-12.3-27.2-22.1-43.4-28.7-16.3-6.6-33.6-9.9-51.1-9.8z"/>
	<path id="Layer" class="s2" d="m628.4 273c-16.5 0-30-13.4-30-30 0-16.6 13.5-30 30-30 16.6 0 30 13.4 30 30 0 16.6-13.4 30-30 30z"/>
	<path id="Layer" class="s3" d="m573 582.1h-12.2l-5.9-47.3h18.1v47.3z"/>
	<path id="Layer" class="s2" d="m552 578.6h23.6v14.9h-38.5c0-1.9 0.4-3.9 1.1-5.7 0.8-1.8 1.9-3.4 3.3-4.8 1.4-1.4 3-2.5 4.8-3.2 1.8-0.8 3.7-1.2 5.7-1.2z"/>
	<path id="Layer" class="s3" d="m668 582.1h-12.2l-5.9-47.3h18.1v47.3z"/>
	<path id="Layer" class="s2" d="m647 578.6h23.6v14.9h-38.5c0-1.9 0.4-3.9 1.1-5.7 0.8-1.8 1.9-3.4 3.3-4.8 1.4-1.4 3-2.5 4.8-3.2 1.8-0.8 3.7-1.2 5.7-1.2z"/>
	<path id="Layer" class="s3" d="m623.9 273.2c-13.6 0-24.6-11-24.6-24.6 0-13.6 11-24.6 24.6-24.6 13.6 0 24.6 11 24.6 24.6 0 13.6-11 24.6-24.6 24.6z"/>
	<path id="Layer" class="s2" d="m638.5 352.4l11-25.2c1.3-3 2.2-6.1 2.6-9.3 0.4-3.2 0.2-6.5-0.4-9.6-0.6-3.2-1.7-6.3-3.3-9.1-1.5-2.8-3.5-5.4-5.8-7.6q-0.4-0.4-0.8-0.7-0.3-0.4-0.7-0.7-0.4-0.4-0.8-0.7-0.4-0.3-0.8-0.6-2-1.6-4.3-2.8-2.2-1.2-4.6-2.1-2.5-0.8-5-1.3-2.5-0.4-5.1-0.4-1.7 0-3.4 0.2-1.8 0.2-3.5 0.6-1.6 0.4-3.3 0.9-1.6 0.6-3.2 1.3-0.5 0.2-1.1 0.5-1 0.5-2 1.1-3.2 1.8-5.9 4.4-2.7 2.5-4.8 5.6-2 3.1-3.3 6.6-1.3 3.5-1.7 7.2l-4.8 40.7c-1.3 3.2-44.8 118.4-29.6 206.3q0.2 0.7 0.5 1.4 0.3 0.6 0.8 1.1 0.6 0.5 1.2 0.8 0.7 0.3 1.4 0.4l15.4 2.1q0.8 0.1 1.7-0.1 0.8-0.2 1.5-0.7 0.7-0.5 1.2-1.2 0.4-0.7 0.6-1.5l25.9-123.5c0.2-0.7 0.6-1.4 1.2-1.9 0.6-0.5 1.3-0.8 2.1-0.8 0.8-0.1 1.6 0.2 2.2 0.6 0.6 0.5 1.1 1.2 1.3 1.9l36.6 129.8q0.2 0.7 0.6 1.3 0.4 0.6 1 1.1 0.6 0.4 1.2 0.6 0.7 0.3 1.5 0.3 0.1 0 0.2 0 0.1 0 0.2 0 0.1-0.1 0.2-0.1 0.1 0 0.2 0l18.9-3.6q0.8-0.2 1.5-0.6 0.7-0.5 1.2-1.1 0.5-0.7 0.8-1.5 0.2-0.8 0.1-1.6c-2.7-30.9-17.5-185.7-36.6-208.5z"/>
	<path id="Layer" class="s3" d="m528.4 269c-0.1 1.5 0 3 0.5 4.4 0.4 1.4 1.2 2.7 2.2 3.7 1 1.1 2.3 1.9 3.6 2.5 1.4 0.5 2.9 0.7 4.3 0.7l13.8 32.9 10.3-15.3-14.6-29c-0.3-2.5-1.5-4.7-3.4-6.4-1.8-1.6-4.2-2.5-6.7-2.5-2.5 0.1-4.9 1-6.7 2.7-1.8 1.6-3 3.9-3.3 6.3z"/>
	<path id="Layer" class="s3" d="m622.5 385.6c1.5-0.1 2.9-0.6 4.1-1.4 1.3-0.8 2.4-1.8 3.2-3.1 0.8-1.2 1.3-2.6 1.5-4 0.2-1.5 0.1-3-0.3-4.4l28.8-21-17.4-6.5-24.7 20.9c-2.3 0.9-4.2 2.6-5.4 4.8-1.1 2.2-1.4 4.7-0.8 7.1 0.5 2.4 2 4.5 4 5.9 2.1 1.4 4.6 2 7 1.7z"/>
	<path id="Layer" class="s2" d="m575.4 335.2q-0.4 0-0.8 0-0.4 0-0.8 0-0.4-0.1-0.8-0.1-0.5-0.1-0.9-0.2-1.9-0.4-3.8-1.2-1.8-0.8-3.3-2.1-1.6-1.3-2.8-2.9-1.2-1.6-2-3.4l-19.2-23.5q-0.7-0.7-0.9-1.6-0.3-1-0.1-1.9 0.2-1 0.7-1.8 0.5-0.8 1.4-1.3l13.7-8.5q0.7-0.5 1.6-0.6 0.9-0.2 1.8 0 0.8 0.3 1.6 0.8 0.7 0.5 1.2 1.3l13.5 22.3 26-19.2c2.1-1.1 4.4-1.4 6.7-0.8 2.3 0.5 4.3 1.8 5.7 3.7 1.3 1.9 2 4.2 1.8 6.6-0.2 2.3-1.2 4.5-2.9 6.1l-25.9 23.6q-1.1 1.2-2.5 2-1.3 0.9-2.8 1.5-1.4 0.6-3 0.9-1.6 0.3-3.2 0.3z"/>
	<path id="Layer" class="s2" d="m645.6 370.5q-0.1 0-0.1 0-0.5 0-0.9-0.1-0.5-0.1-0.9-0.3-0.5-0.2-0.8-0.5-0.4-0.3-0.7-0.7l-12.2-14.2q-0.6-0.7-0.9-1.6-0.3-0.9-0.1-1.9 0.1-1 0.6-1.8 0.5-0.8 1.3-1.3l22.8-15.2-20.6-24.8c-1.2-2-1.7-4.4-1.3-6.7 0.4-2.3 1.6-4.4 3.5-5.8 1.8-1.5 4-2.3 6.4-2.2 2.3 0 4.5 0.9 6.3 2.5l25 24.5c2 1.8 3.5 4.1 4.4 6.6 0.9 2.5 1.2 5.2 0.9 7.8-0.4 2.7-1.4 5.2-2.9 7.4-1.6 2.2-3.6 3.9-6 5.1l-20.5 21.8q-0.4 0.3-0.7 0.6-0.4 0.3-0.8 0.4-0.4 0.2-0.9 0.3-0.5 0.1-0.9 0.1z"/>
	<path id="Layer" class="s4" d="m617.6 318.2q0 0-0.1 0-0.1 0-0.1 0-0.1 0-0.2 0-0.1 0-0.1 0-0.7-0.1-1.3-0.4-0.6-0.2-1-0.6-0.5-0.4-0.9-1-0.4-0.5-0.5-1.1l-9.2-28q-0.2-0.6-0.1-1.1 0-0.6 0.2-1.1 0.2-0.5 0.6-0.9 0.4-0.4 0.9-0.6l0.3-0.2q0.4-0.2 0.8-0.4 1.6-0.7 3.3-1.3 1.6-0.5 3.3-0.9 1.8-0.4 3.5-0.6 1.8-0.2 3.5-0.2 2.3 0 4.5 0.4 2.3 0.3 4.5 0.9 2.1 0.7 4.2 1.7 2.1 0.9 4 2.2 0.5 0.3 0.8 0.8 0.4 0.5 0.5 1.1 0.1 0.6 0 1.2-0.1 0.6-0.4 1.2l-17.2 26.8q-0.3 0.5-0.7 0.9-0.4 0.4-0.9 0.7-0.5 0.2-1 0.4-0.6 0.1-1.2 0.1z"/>
	<path id="Layer" class="s2" d="m652.1 229.6c-5.4 0-9.8-4.4-9.8-9.8 0-5.4 4.4-9.8 9.8-9.8 5.4 0 9.8 4.4 9.8 9.8 0 5.4-4.4 9.8-9.8 9.8z"/>
	<path id="Layer" class="s2" d="m618.4 209c-3.4 0-6.7 0.7-9.9 2-3.2 1.3-6 3.2-8.4 5.6-2.5 2.4-4.4 5.3-5.7 8.4-1.3 3.2-2 6.6-2 10v11h13.6l6.4-11 2 11h41l-11-11c0-3.4-0.6-6.8-1.9-10-1.3-3.1-3.3-6-5.7-8.4-2.4-2.4-5.2-4.3-8.4-5.6-3.2-1.3-6.5-2-10-2z"/>
	<path id="Layer" class="s2" d="m657.1 213.1c0.6-1.7 1.4-3.3 2.5-4.7 1.1-1.4 2.4-2.6 3.9-3.5 1.5-1 3.1-1.7 4.9-2 1.7-0.4 3.5-0.5 5.2-0.2 6.3 1 11.2 6 14.2 11.7 2.9 5.6 4.3 11.9 6.3 17.9 1.9 6 4.8 12.1 9.8 16 5 3.9 12.6 4.9 17.5 0.9-0.5 4.2-2.4 8.1-5.3 11.2-2.9 3-6.7 5.1-10.8 5.9-4.1 0.8-8.4 0.3-12.3-1.5-3.8-1.8-7-4.7-9-8.4-2.6-4.6-3.3-10-4.1-15.3-0.7-5.2-1.7-10.6-4.8-14.9-3.1-4.3-8.9-7.1-13.8-5.1z"/>
	<path id="Layer" class="s5" d="m337.9 228c-4.4 0-8.8-0.8-12.9-2.5-4.1-1.7-7.8-4.2-10.9-7.3-3.1-3.2-5.6-6.9-7.3-11-1.7-4.1-2.6-8.5-2.6-12.9 0-6.1 0-10.8 0-11.4q0.1-7.9 1.2-15.6 1-7.7 2.9-15.3 2-7.6 4.8-14.9 2.8-7.3 6.5-14.2-6 8.3-10.7 17.3-4.7 9.1-7.9 18.7-3.2 9.7-4.9 19.7-1.7 10.1-1.9 20.3c0 0.6 0 5.3 0 11.4 0 4.4 0.9 8.8 2.6 12.9 1.7 4.1 4.2 7.8 7.3 11 3.1 3.1 6.8 5.6 10.9 7.3 4.1 1.7 8.5 2.5 12.9 2.5 3.7 0 7.3-0.6 10.8-1.7 3.5-1.2 6.7-2.9 9.6-5.1 2.9-2.2 5.5-4.9 7.5-7.9 2.1-3 3.6-6.3 4.6-9.9q-2.3 2.1-4.9 3.7-2.6 1.6-5.5 2.7-2.9 1.1-5.9 1.7-3.1 0.5-6.2 0.5z"/>
	<path id="Layer" class="s5" d="m428.8 139.1c10.3 0.5 20.4 3.5 29.3 8.7 8.9 5.3 16.5 12.6 21.9 21.4 5.5 8.8 8.8 18.8 9.5 29.1 0.8 10.4-1 20.7-5.1 30.2 12.1-14.2 17.4-32.9 14.5-51.3-2.8-18.4-13.6-34.6-29.4-44.5-15.8-9.8-35.1-12.3-52.8-6.8-17.8 5.6-32.3 18.6-39.7 35.6 3.1-3.7 6.7-7 10.6-9.9 3.9-2.9 8.2-5.4 12.7-7.3 4.4-1.9 9.1-3.4 13.9-4.2 4.8-0.9 9.7-1.2 14.6-1z"/>
	<path id="Layer" class="s5" d="m439.1 438c-4.5 0-9-0.8-13.1-2.6-4.2-1.7-8-4.2-11.3-7.3-3.2-3.2-5.8-7-7.5-11.1-1.8-4.2-2.8-8.7-2.9-13.2-0.4-26.4-0.6-59-0.6-62.8q0-3.4 0.2-6.7 0.3-3.4 0.8-6.8 0.5-3.3 1.2-6.7 0.7-3.3 1.7-6.5 0.5-1.7 1.2-3.3 0.6-1.6 1.3-3.2 0.7-1.6 1.4-3.1 0.8-1.6 1.6-3.1-2.5 3.2-4.7 6.7-2.2 3.4-4.2 7-1.9 3.6-3.6 7.4-1.6 3.7-3 7.6-1 3.2-1.7 6.5-0.7 3.4-1.2 6.7-0.5 3.4-0.8 6.8-0.2 3.3-0.2 6.7c0 3.8 0.2 36.4 0.6 62.8 0.1 4.5 1.1 9 2.9 13.2 1.7 4.1 4.3 7.9 7.5 11.1 3.3 3.1 7.1 5.6 11.3 7.3 4.1 1.8 8.6 2.6 13.1 2.6 3.8 0 7.5-0.6 11-1.7 3.6-1.2 6.9-3 9.9-5.2 3-2.3 5.6-5 7.7-8 2.2-3.1 3.8-6.5 4.8-10.1q-2.3 2.2-5.1 3.9-2.7 1.6-5.7 2.8-3 1.2-6.2 1.8-3.1 0.5-6.4 0.5z"/>
	<path id="Layer" class="s6" d="m126.5 582.6h12.3l5.8-47.3h-18.1v47.3z"/>
	<path id="Layer" class="s2" d="m162.4 594h-38.5v-14.9h23.7c1.9 0 3.8 0.4 5.7 1.1 1.8 0.8 3.4 1.9 4.8 3.2 1.4 1.4 2.5 3.1 3.2 4.9 0.8 1.8 1.1 3.7 1.1 5.7 301.7 731.4 301.7 731.4 301.7 731.4z"/>
	<path id="Layer" class="s6" d="m82.5 582.6h12.3l5.8-47.3h-18.1v47.3z"/>
	<path id="Layer" class="s2" d="m118.4 594h-38.5v-14.9h23.7c1.9 0 3.8 0.4 5.7 1.1 1.8 0.8 3.4 1.9 4.8 3.2 1.4 1.4 2.5 3.1 3.2 4.9 0.8 1.8 1.1 3.7 1.1 5.7 257.7 731.4 257.7 731.4 257.7 731.4z"/>
	<path id="Layer" class="s2" d="m93.3 568l-12-0.6q-1 0-1.8-0.4-0.8-0.5-1.5-1.1-0.6-0.8-0.9-1.6-0.3-0.9-0.2-1.9l14.3-158.4 65.9 17.8 6.3-1.8-19.8 140.3q-0.2 0.8-0.5 1.5-0.4 0.7-1 1.3-0.6 0.5-1.3 0.8-0.8 0.3-1.6 0.4l-12.9 0.6q-1 0-1.9-0.3-0.9-0.4-1.6-1.1-0.7-0.6-1.1-1.5-0.3-1-0.3-1.9l2.3-84.2c0-0.4-0.1-0.8-0.4-1.1-0.2-0.3-0.6-0.5-1-0.5-0.3-0.1-0.7 0-1.1 0.3-0.3 0.2-0.5 0.5-0.6 0.9l-22.5 88.8q-0.2 0.8-0.6 1.5-0.4 0.7-1 1.2-0.7 0.5-1.4 0.8-0.8 0.3-1.6 0.2-0.1 0-0.2 0z"/>
	<path id="Layer" class="s6" d="m128.7 274.3c-13.5 0-24.5-11-24.5-24.5 0-13.6 11-24.6 24.5-24.6 13.6 0 24.6 11 24.6 24.6 0 13.5-11 24.5-24.6 24.5z"/>
	<path id="Layer" class="s7" d="m87.8 321.9l2.8 58.3 0.9 21.2q0.1 0.7 0.3 1.3 0.2 0.7 0.6 1.2 0.4 0.6 1 1 0.5 0.4 1.2 0.7l63.3 22.9q0.2 0.1 0.4 0.1 0.2 0.1 0.4 0.1 0.2 0.1 0.4 0.1 0.2 0 0.4 0 1 0 1.9-0.4 0.8-0.3 1.5-1 0.6-0.7 1-1.6 0.3-0.9 0.3-1.8l-2.6-104.8c-0.1-4.2-0.9-8.5-2.4-12.4-1.6-4-3.8-7.7-6.5-10.9-2.8-3.3-6.2-6-9.9-8.1-3.7-2.1-7.7-3.5-11.9-4.2q-1-0.2-1.9-0.3-3.9-0.5-7.9-0.1-3.9 0.3-7.7 1.6-3.8 1.2-7.2 3.2-3.5 2-6.4 4.7-3 2.8-5.3 6.1-2.3 3.4-3.9 7.2-1.6 3.8-2.3 7.8-0.6 4-0.5 8.1z"/>
	<path id="Layer" class="s6" d="m188.2 416.9c-1.5-0.5-2.9-1.3-4-2.4-1.1-1.1-2-2.4-2.5-3.9-0.5-1.5-0.7-3-0.5-4.6 0.2-1.6 0.7-3 1.6-4.4l-21.5-28.5 18.6-1.2 17.5 27.3c1.9 1.5 3.2 3.6 3.7 5.9 0.5 2.3 0.2 4.7-0.9 6.8-1.1 2.1-2.9 3.8-5.1 4.7-2.2 0.9-4.6 1-6.9 0.3z"/>
	<path id="Layer" class="s7" d="m173.1 396.5q-0.4-0.2-0.8-0.4-0.4-0.3-0.7-0.6-0.4-0.3-0.6-0.7-0.3-0.4-0.5-0.8l-32.3-77.1c-1.3-3.1-1.3-6.5-0.1-9.6 1.3-3 3.7-5.5 6.8-6.8 3-1.2 6.4-1.3 9.5 0 3.1 1.3 5.5 3.7 6.8 6.7l32.3 77.1q0.4 0.9 0.4 1.8 0 0.9-0.4 1.8-0.3 0.9-1 1.5-0.6 0.7-1.5 1l-14.3 6.1q-0.5 0.1-0.9 0.2-0.5 0.1-0.9 0.1-0.5 0-0.9-0.1-0.5 0-0.9-0.2z"/>
	<path id="Layer" class="s5" d="m120.8 393.8l31.1-59.5q0.5-0.9 1.2-1.5 0.8-0.6 1.7-0.9 0.9-0.3 1.9-0.2 0.9 0 1.8 0.5l45.1 23.5q0.9 0.5 1.5 1.2 0.6 0.8 0.9 1.7 0.3 0.9 0.2 1.9-0.1 1-0.5 1.8l-31.1 59.5q-0.5 0.9-1.2 1.5-0.7 0.6-1.7 0.9-0.9 0.3-1.9 0.2-0.9-0.1-1.8-0.5l-45.1-23.6q-0.8-0.4-1.5-1.2-0.6-0.7-0.9-1.6-0.3-0.9-0.2-1.9 0.1-1 0.5-1.8z"/>
	<path id="Layer" class="s6" d="m141.7 366.6c-0.6-1.5-1.5-2.8-2.6-3.9-1.2-1-2.5-1.8-4.1-2.3-1.5-0.4-3-0.5-4.6-0.2-1.5 0.3-3 1-4.2 1.9l-29.8-19.7-0.1 18.5 28.3 15.9c1.6 1.8 3.7 3 6.1 3.4 2.3 0.4 4.7-0.1 6.8-1.3 2-1.3 3.5-3.2 4.3-5.4 0.8-2.3 0.7-4.7-0.1-6.9z"/>
	<path id="Layer" class="s7" d="m104 370.7l-24.3-19.2c-2.6-0.9-5-2.4-6.9-4.4-2-2-3.4-4.5-4.1-7.1-0.8-2.7-0.9-5.5-0.3-8.2 0.5-2.8 1.7-5.3 3.5-7.5l22.1-28.9c1.5-1.9 3.7-3.2 6.1-3.6 2.3-0.4 4.8 0.1 6.9 1.3 2.1 1.3 3.6 3.2 4.4 5.5 0.7 2.3 0.6 4.8-0.3 7.1l-17.5 28.6 25.7 12.1q0.9 0.5 1.6 1.2 0.6 0.8 0.9 1.8 0.3 0.9 0.1 1.9-0.1 1-0.6 1.9l-10.4 16.4q-0.3 0.4-0.6 0.7-0.4 0.4-0.8 0.7-0.4 0.2-0.8 0.4-0.5 0.2-1 0.3 0 0-0.1 0-0.4 0.1-0.9 0.1-0.5-0.1-1-0.2-0.4-0.1-0.9-0.3-0.4-0.3-0.8-0.6z"/>
	<path id="Layer" class="s2" d="m110.2 266.2q-0.2-0.5-0.1-1 0-0.4 0.3-0.9 0.3-0.4 0.7-0.6 0.4-0.3 0.9-0.3 0.5 0 1 0.1 0.5 0.2 1 0.4 0.4 0.2 0.8 0.5 0.4 0.3 0.7 0.7 0.3 0.4 0.7 0.7 0.4 0.4 0.8 0.7 0.3 0.4 0.7 0.7 0.5 0.3 0.9 0.5c1.2 0.6 2.8 0.6 3.5-0.6 0.6-1.1 0.2-2.5-0.2-3.7q-0.4-1.2-0.7-2.4-0.3-1.2-0.5-2.5-0.2-1.2-0.3-2.4-0.1-1.3-0.2-2.5c-0.1-3.7 0.5-7.6 2.5-10.5 2.7-3.7 7.4-5.1 11.9-5 4.4 0.1 8.8 1.5 13.3 2.4 1.5 0.3 3.3 0.4 4.3-0.8 1.1-1.2 0.7-3.3 0.2-5-1.2-4.4-2.4-9-5.2-12.5q-1.1-1.4-2.5-2.6-1.4-1.1-2.9-2-1.6-0.8-3.2-1.4-1.7-0.6-3.5-0.8-1.7-0.2-3.4-0.2-1.7 0-3.4 0.1-1.7 0.2-3.4 0.6-1.6 0.4-3.3 1-2.6 0.8-5 2-2.5 1.3-4.7 2.8-2.3 1.6-4.3 3.5-2 1.9-3.6 4-1.8 2.3-3 4.9-1.2 2.6-2 5.4-0.7 2.8-0.8 5.6-0.2 2.9 0.2 5.7 0.4 2.5 1.2 4.9 0.9 2.3 2.1 4.5 1.3 2.2 3 4 1.6 1.9 3.6 3.5z"/>
	<path id="Layer" class="s5" d="m421.3 582.8c-6.6-2.9-12.4-7.2-16.9-12.7-4.6-5.4-7.9-11.9-9.5-18.8-1.7-6.9-1.7-14.2-0.1-21.1 1.6-6.9 4.8-13.4 9.4-18.9-10.7 7.8-17.5 19.8-18.7 32.9-1.2 13.1 3.3 26.2 12.3 35.8 9.1 9.6 21.8 14.8 35 14.4 13.2-0.4 25.5-6.5 34-16.6-3.3 2.3-6.8 4.2-10.5 5.7-3.7 1.4-7.6 2.4-11.6 2.8-4 0.5-8 0.4-12-0.2-3.9-0.6-7.8-1.7-11.4-3.3z"/>
</svg>